:SAMPLES-PER-SECOND 30
:FULLY-SPECIFIED
:DEGREES
666
root  9.54854 32.5262 23.9707 67.9897 3.69147 85.2151
Spine  -2.38796 3.04013 -14.098
Spine1  -1.24037 12.8508 7.22931
Neck  3.97569e-016 0 -2.38542e-015
Head  -52.3208 18.9239 43.2212
R_Clavicle  -0.662511 12.5602 -1.46563
R_UpperArm  15.0322 6.34703 -30.429
R_Forearm  -33.1617 -53.3189 25.2948
R_Hand  -0.441948 10.0379 -15.3655
L_Clavicle  0.392744 -4.10027 -1.59657
L_UpperArm  13.3866 2.46314 -44.6741
L_Forearm  -43.8572 -8.25464 -9.63672
L_Hand  4.35595 21.3544 18.6421
L_Thigh  -5.10431 1.08084 6.94307
L_Calf  7.0514 -2.83277 20.8115
L_Foot  0.936408 6.00693 -2.14388
L_Toe0  0.351804 0.0407327 -6.27261
R_Thigh  3.07207 6.25413 -15.7187
R_Calf  -2.2081 9.15619 30.1614
R_Foot  -1.35116 -2.23068 5.14431
R_Toe0  -1.78851 -0.272788 -17.3235
667
root  9.34727 32.5159 25.1145 67.1252 3.85827 85.5898
Spine  -1.88121 2.62453 -14.5565
Spine1  -0.795199 11.2484 7.83952
Neck  3.97569e-016 0 -2.38542e-015
Head  -51.7961 18.7638 43.823
R_Clavicle  -0.711562 13.0412 -1.57902
R_UpperArm  14.4061 6.09987 -31.1601
R_Forearm  -32.085 -53.2097 25.0041
R_Hand  -0.397812 9.76879 -14.9697
L_Clavicle  0.404019 -4.33322 -1.60753
L_UpperArm  13.4447 2.0291 -45.1502
L_Forearm  -44.5811 -8.09764 -9.44856
L_Hand  4.79897 21.9731 20.024
L_Thigh  -5.43019 1.04004 6.81352
L_Calf  5.59545 -4.06607 29.941
L_Foot  0.813326 7.33178 -3.7139
L_Toe0  0.505156 0.034439 -6.1361
R_Thigh  2.27789 5.38307 -17.9871
R_Calf  -2.27041 9.28856 30.5703
R_Foot  -1.58023 -2.14209 6.97822
R_Toe0  -1.83719 -0.272594 -17.3512
668
root  9.19121 32.315 26.3246 66.0544 4.63355 86.1662
Spine  -1.34633 1.51837 -14.7651
Spine1  -0.341689 9.8192 8.4023
Neck  3.97569e-016 0 -2.38542e-015
Head  -51.2107 18.4925 44.8011
R_Clavicle  -0.753831 13.0095 -1.722
R_UpperArm  12.1397 5.91246 -31.4354
R_Forearm  -29.0934 -52.8464 24.1393
R_Hand  -0.389368 9.47976 -14.8036
L_Clavicle  0.406027 -4.76822 -1.51921
L_UpperArm  13.8846 1.70677 -46.003
L_Forearm  -45.7883 -7.86164 -9.16653
L_Hand  4.98229 22.2532 20.5613
L_Thigh  -6.12099 0.529297 6.6613
L_Calf  2.61886 -4.81421 32.1149
L_Foot  1.17498 11.3647 -5.36451
L_Toe0  0.505156 0.0345011 -6.1361
R_Thigh  1.36575 3.94071 -19.7724
R_Calf  -2.43449 8.71485 28.4151
R_Foot  -1.90217 -1.90015 9.97293
R_Toe0  -1.35358 -0.277904 -17.3011
669
root  9.09056 31.9791 27.6045 65.3279 5.99493 86.7918
Spine  -0.962665 -0.487119 -13.9565
Spine1  -0.138423 9.34272 8.11223
Neck  3.97569e-016 0 -2.38542e-015
Head  -50.855 18.3237 45.8
R_Clavicle  -0.761108 12.6173 -1.78712
R_UpperArm  8.93804 5.7833 -31.5466
R_Forearm  -25.2484 -52.2783 22.9888
R_Hand  -0.399839 9.42113 -14.8556
L_Clavicle  0.376827 -4.76548 -1.35983
L_UpperArm  14.7558 1.44264 -46.8097
L_Forearm  -46.7461 -7.59506 -8.84873
L_Hand  5.04413 22.3989 20.7028
L_Thigh  -8.39673 -0.376674 6.13035
L_Calf  1.81505 -4.22048 28.509
L_Foot  1.2842 14.2003 -6.77867
L_Toe0  0.505156 0.034684 -6.1361
R_Thigh  0.993088 1.86028 -20.3484
R_Calf  -3.63194 7.11713 22.7706
R_Foot  -1.21337 0.280967 11.1323
R_Toe0  0.302813 -0.253566 -14.5055
670
root  9.04177 31.6224 28.9302 64.7854 7.63484 87.2965
Spine  -0.746134 -2.50683 -12.3255
Spine1  -0.0730631 9.25311 7.48993
Neck  3.97569e-016 0 -2.38542e-015
Head  -50.6638 18.3197 46.4019
R_Clavicle  -0.714175 12.3608 -1.65727
R_UpperArm  7.84025 5.81817 -31.9812
R_Forearm  -24.0827 -52.0531 22.5957
R_Hand  -0.422857 9.65971 -15.1041
L_Clavicle  0.354521 -4.30491 -1.33442
L_UpperArm  15.9599 1.04279 -47.2373
L_Forearm  -46.8758 -7.49607 -8.73081
L_Hand  5.14837 22.6004 20.9691
L_Thigh  -9.74801 -1.74929 5.08154
L_Calf  1.66129 -2.97109 22.6771
L_Foot  1.86586 15.0706 -5.46029
L_Toe0  0.505156 0.0349568 -6.13609
R_Thigh  1.02854 -0.523549 -19.4084
R_Calf  -6.19746 4.55247 14.2707
R_Foot  0.161082 2.98086 7.84723
R_Toe0  -0.127303 -0.0816964 -3.43977
671
root  9.04029 31.355 30.2059 63.6974 9.07976 87.535
Spine  -0.368013 -3.0525 -10.9582
Spine1  0.144978 8.03129 7.39932
Neck  3.97569e-016 0 -2.38542e-015
Head  -50.2645 18.181 46.8334
R_Clavicle  -0.665001 12.1445 -1.51451
R_UpperArm  10.0282 6.07216 -32.4438
R_Forearm  -26.8281 -52.4658 23.3518
R_Hand  -0.426075 9.89947 -15.2094
L_Clavicle  0.380954 -3.89418 -1.57715
L_UpperArm  17.0773 0.533308 -47.3061
L_Forearm  -46.6067 -7.6424 -8.90478
L_Hand  5.35711 22.8844 21.5778
L_Thigh  -9.41197 -3.05423 3.67364
L_Calf  0.155772 -2.36423 17.5935
L_Foot  3.11025 14.4093 -1.21023
L_Toe0  0.505156 0.0352883 -6.13609
R_Thigh  0.75967 -2.72632 -17.1757
R_Calf  -8.9099 1.65004 5.09626
R_Foot  1.02559 3.46132 -0.0892745
R_Toe0  1.16995 -0.214039 9.02216
672
root  9.05219 31.2121 31.3754 62.0467 10.1009 87.6293
Spine  0.307867 -2.2566 -10.3319
Spine1  0.510258 5.70078 7.53324
Neck  3.97569e-016 0 -2.38542e-015
Head  -49.5624 17.6592 47.5563
R_Clavicle  -0.688085 11.6468 -1.6443
R_UpperArm  13.0331 6.3189 -32.3355
R_Forearm  -30.5574 -52.9885 24.4494
R_Hand  -0.354512 9.87485 -14.7123
L_Clavicle  0.427727 -3.79689 -1.87056
L_UpperArm  17.6418 0.298904 -47.2606
L_Forearm  -46.614 -7.78742 -9.07748
L_Hand  5.63201 23.1792 22.4183
L_Thigh  -9.8863 -3.99963 2.07382
L_Calf  -1.52047 -1.92149 14.2863
L_Foot  4.39631 13.7914 3.19602
L_Toe0  0.505156 0.0356475 -6.13609
R_Thigh  0.282836 -4.56645 -14.1812
R_Calf  -9.75076 -0.943657 -2.94687
R_Foot  1.47382 2.61839 -8.05482
R_Toe0  3.20769 -1.15533 8.84038
673
root  9.01766 31.1837 32.5002 60.7603 10.6657 87.6283
Spine  0.871649 -1.40719 -10.1433
Spine1  0.773473 4.0118 7.1764
Neck  3.97569e-016 0 -2.38542e-015
Head  -48.9191 17.0573 48.3673
R_Clavicle  -0.76082 11.0077 -1.96557
R_UpperArm  14.5964 6.27269 -31.7888
R_Forearm  -32.4551 -53.1941 24.96
R_Hand  -0.230187 9.71634 -13.7914
L_Clavicle  0.433926 -3.74136 -1.92054
L_UpperArm  17.6811 0.555689 -47.2631
L_Forearm  -46.8623 -7.68564 -8.95629
L_Hand  5.88311 23.4187 23.1919
L_Thigh  -10.7382 -4.70815 0.166213
L_Calf  -2.77959 -1.692 12.641
L_Foot  5.30836 13.9128 5.87301
L_Toe0  0.505156 0.0360034 -6.13608
R_Thigh  0.760092 -5.96227 -11.3633
R_Calf  -7.74496 -2.71022 -8.46047
R_Foot  1.73459 2.12897 -12.112
R_Toe0  5.55377 -1.52952 -2.19731
674
root  8.92343 31.2759 33.6047 60.4561 10.8524 87.5899
Spine  0.958769 -1.25825 -10.2402
Spine1  0.773706 3.83672 6.53616
Neck  3.97569e-016 0 -2.38542e-015
Head  -48.6247 16.8664 48.6545
R_Clavicle  -0.814418 10.5486 -2.20881
R_UpperArm  15.044 5.95335 -31.3487
R_Forearm  -32.787 -53.1958 24.9672
R_Hand  -0.146416 9.68426 -13.198
L_Clavicle  0.406335 -3.48392 -1.82472
L_UpperArm  17.6731 1.00585 -47.2514
L_Forearm  -46.9684 -7.46386 -8.69256
L_Hand  6.02939 23.5689 23.6275
L_Thigh  -11.2765 -5.29194 -2.04749
L_Calf  -3.05181 -1.65588 12.3877
L_Foot  5.95154 14.1507 7.58673
L_Toe0  0.505156 0.0363248 -6.13608
R_Thigh  2.44925 -6.89616 -9.23607
R_Calf  -4.41347 -3.60038 -11.2686
R_Foot  1.65007 2.13296 -11.1427
R_Toe0  6.18102 -0.939258 -12.3586
675
root  8.80796 31.4432 34.6266 60.7675 10.8104 87.6987
Spine  0.68984 -1.56638 -10.6964
Spine1  0.517636 4.25075 6.16792
Neck  3.97569e-016 0 -2.38542e-015
Head  -48.5379 17.0081 48.3225
R_Clavicle  -0.840845 10.1957 -2.34779
R_UpperArm  15.2575 5.54778 -31.097
R_Forearm  -32.7154 -53.1791 24.9233
R_Hand  -0.14584 9.75779 -13.2238
L_Clavicle  0.408035 -3.16702 -1.91533
L_UpperArm  17.9482 1.28468 -47.0982
L_Forearm  -47.0025 -7.39535 -8.61134
L_Hand  6.06302 23.6276 23.708
L_Thigh  -11.5919 -5.79481 -4.17026
L_Calf  -2.59234 -1.71933 12.883
L_Foot  6.54034 14.0749 9.40224
L_Toe0  0.505156 0.0365807 -6.13608
R_Thigh  4.28925 -7.40571 -7.48238
R_Calf  -2.64135 -3.6852 -11.5426
R_Foot  1.462 2.20081 -8.9219
R_Toe0  1.055 -0.272619 -15.8009
676
root  8.68211 31.6452 35.5728 61.0773 10.5569 87.8518
Spine  0.312917 -1.75438 -11.4451
Spine1  0.149668 4.46532 5.96797
Neck  3.97569e-016 0 -2.38542e-015
Head  -48.2984 16.9617 47.7648
R_Clavicle  -0.866497 9.82892 -2.4885
R_UpperArm  14.9619 5.10796 -30.9
R_Forearm  -31.9845 -53.11 24.7486
R_Hand  -0.175394 9.77086 -13.4058
L_Clavicle  0.457593 -3.06051 -2.24054
L_UpperArm  18.3568 1.42088 -46.9053
L_Forearm  -47.3783 -7.45643 -8.68418
L_Hand  6.08104 23.6441 23.7626
L_Thigh  -12.0482 -6.03696 -6.16017
L_Calf  -1.75279 -1.84747 13.8842
L_Foot  6.8488 13.6943 10.6794
L_Toe0  0.505156 0.0367401 -6.13608
R_Thigh  5.7402 -7.418 -5.72023
R_Calf  -2.78474 -3.0985 -9.69752
R_Foot  1.44345 2.23223 -8.64527
R_Toe0  0.568449 -0.291698 -16.0257
677
root  8.52561 31.857 36.4951 61.1491 10.0973 87.9016
Spine  -0.102784 -1.88412 -12.3423
Spine1  -0.200171 4.77096 5.69562
Neck  3.97569e-016 0 -2.38542e-015
Head  -47.5569 16.4784 47.0737
R_Clavicle  -0.878139 9.66148 -2.55354
R_UpperArm  13.5164 4.67313 -31.024
R_Forearm  -29.5857 -52.8434 24.1269
R_Hand  -0.181405 9.77 -13.4512
L_Clavicle  0.5088 -3.20401 -2.50553
L_UpperArm  18.5703 1.56706 -46.9649
L_Forearm  -48.3321 -7.40944 -8.62867
L_Hand  6.23218 23.7136 24.2748
L_Thigh  -12.7521 -5.98662 -8.12202
L_Calf  -0.828444 -2.02922 15.268
L_Foot  6.86707 13.3851 11.0407
L_Toe0  0.505156 0.0367719 -6.13608
R_Thigh  7.13554 -6.97417 -3.95728
R_Calf  -3.45617 -1.99322 -6.24026
R_Foot  1.56108 2.52532 -9.27617
R_Toe0  1.72338 -0.344661 -14.943
678
root  8.34788 32.0444 37.378 60.9388 9.55828 88.0228
Spine  -0.530003 -2.36091 -13.4112
Spine1  -0.476759 5.37803 5.55999
Neck  3.97569e-016 0 -2.38542e-015
Head  -46.0053 15.6972 46.054
R_Clavicle  -0.85938 9.80124 -2.46674
R_UpperArm  11.192 4.39834 -31.7279
R_Forearm  -25.6398 -52.3735 23.1693
R_Hand  -0.209421 9.90339 -13.7323
L_Clavicle  0.525197 -3.41066 -2.54271
L_UpperArm  18.5864 1.66162 -47.399
L_Forearm  -49.7937 -7.19151 -8.37032
L_Hand  6.58774 23.9243 25.4264
L_Thigh  -13.8002 -5.89483 -9.92683
L_Calf  0.0687908 -2.21925 16.6996
L_Foot  6.90473 13.2032 11.3363
L_Toe0  0.505156 0.036645 -6.13608
R_Thigh  8.60279 -6.38777 -2.25139
R_Calf  -4.03383 -0.478391 -1.53896
R_Foot  1.63364 3.01453 -8.94239
R_Toe0  0.0341926 -0.261951 -13.5678
679
root  8.17672 32.2058 38.1914 60.4313 9.03043 88.3248
Spine  -0.920156 -3.00128 -14.5932
Spine1  -0.696329 5.86181 5.54926
Neck  3.97569e-016 0 -2.38542e-015
Head  -43.4919 14.6833 44.8831
R_Clavicle  -0.851984 9.99031 -2.41463
R_UpperArm  9.28391 4.25199 -32.6663
R_Forearm  -21.9821 -51.945 22.4147
R_Hand  -0.310862 10.1127 -14.5045
L_Clavicle  0.533142 -3.48134 -2.56901
L_UpperArm  18.7944 1.64421 -48.0291
L_Forearm  -51.4112 -6.96938 -8.10747
L_Hand  7.05856 24.3036 26.8286
L_Thigh  -15.1636 -5.91377 -11.5672
L_Calf  1.00228 -2.40858 18.1326
L_Foot  7.06742 13.0919 11.9354
L_Toe0  0.500239 0.0363667 -6.14044
R_Thigh  10.0058 -5.81276 -0.672149
R_Calf  -4.33952 1.43238 4.37695
R_Foot  1.56738 2.86577 -8.52337
R_Toe0  -2.87282 -0.0644023 -13.2323
